<svg xmlns="http://www.w3.org/2000/svg" viewBox="0 0 24 24"><path id="a" fill="#DC3558" d="M22.172 7.792l-4.326 14.375-5.367-1.667c.077-.256.106-.517.093-.774l.002-.056c0-1.57-1.252-2.842-2.797-2.842-1.257 0-2.32.843-2.672 2.002l-5.277-1.638 4.35-14.368 2.052-.99 1.147 1.983 2.051-.99 1.148 1.984 2.051-.99 1.148 1.984 2.05-.991 1.148 1.984 2.052-.99 1.147 1.984zM6.353 16.005a.567.567 0 0 0 .51-.16.582.582 0 0 0 .172-.416V8.981H9.22v6.448a.572.572 0 0 0 .979.417.585.585 0 0 0 .173-.417V8.981h1.091a1.104 1.104 0 0 1 1.092 1.11v5.338a.57.57 0 0 0 .979.417.584.584 0 0 0 .173-.417V10.09c0-1.108-.781-2.053-1.856-2.245a2.21 2.21 0 0 0-.388-.035H6.46a.576.576 0 0 0-.576.585v7.033c0 .29.194.527.47.576zm8.317 3.065c.035.006.07.01.106.009.483 0 .949-.158 1.346-.456.368-.272.648-.678.812-1.175l.633-2.168 2.001-6.776a.595.595 0 0 0-.388-.741l-.041-.01c-.301-.053-.594.123-.666.4l-1.461 4.923-1.447-4.925a.593.593 0 0 0-.711-.387.593.593 0 0 0-.384.74l1.945 6.6-.594 2.013c-.14.473-.56.791-1.044.791a.57.57 0 0 0-.577.585c0 .29.194.527.47.577z"/></svg>