<svg xmlns="http://www.w3.org/2000/svg" viewBox="-1 -1 98 98"><path d="M48 .5C21.8.5.5 21.8.5 48S21.8 95.5 48 95.5 95.5 74.2 95.5 48 74.2.5 48 .5zm21.2 36.6v1.4c0 14.4-11 31.1-31.1 31.1-6.2 0-11.9-1.8-16.8-4.9.9.1 1.7.2 2.6.2 5.1 0 9.8-1.7 13.6-4.7-4.8-.1-8.8-3.2-10.2-7.6.7.1 1.4.2 2.1.2 1 0 2-.1 2.9-.4-5-1-8.8-5.4-8.8-10.7v-.1c1.5.8 3.2 1.3 4.9 1.4-2.9-2-4.9-5.3-4.9-9.1 0-2 .5-3.9 1.5-5.5 5.4 6.6 13.4 11 22.5 11.4a10.93 10.93 0 0 1 10.6-13.4c3.1 0 6 1.3 8 3.5 2.5-.5 4.8-1.4 6.9-2.7-.8 2.6-2.6 4.7-4.8 6 2.2-.3 4.3-.8 6.3-1.7-1.3 2.2-3.2 4.1-5.3 5.6z"/></svg>